<?xml version="1.0" standalone="no"?>
<!DOCTYPE svg PUBLIC "-//W3C//DTD SVG 20010904//EN"
 "http://www.w3.org/TR/2001/REC-SVG-20010904/DTD/svg10.dtd">
<svg version="1.0" xmlns="http://www.w3.org/2000/svg"
 width="300.000000pt" height="300.000000pt" viewBox="0 0 300.000000 300.000000"
 preserveAspectRatio="xMidYMid meet">

<g transform="translate(0.000000,300.000000) scale(0.100000,-0.100000)"
fill="#6366f1" stroke="none">
<path d="M1042 2888 c-8 -8 -12 -49 -12 -119 0 -87 -3 -109 -17 -120 -9 -8
-24 -32 -34 -54 -16 -34 -19 -68 -19 -230 l0 -191 -68 -67 -68 -67 -193 0
c-180 0 -196 -1 -232 -22 -22 -12 -39 -25 -39 -30 0 -4 -45 -8 -99 -8 -117 0
-151 -10 -151 -43 0 -40 18 -47 117 -47 l93 0 0 -45 0 -45 -86 0 c-95 0 -124
-10 -124 -43 0 -40 18 -47 117 -47 l93 0 0 -50 0 -49 -102 -3 -103 -3 -3 -33
c-2 -20 2 -34 10 -37 7 -3 130 -8 272 -12 193 -6 260 -11 264 -20 3 -10 -35
-13 -167 -13 l-171 0 0 -30 0 -29 -102 -3 -103 -3 -3 -29 c-2 -16 2 -34 8 -40
6 -6 49 -12 98 -13 48 -1 90 -2 95 -2 4 -1 7 -21 7 -46 l0 -45 -99 0 c-104 0
-111 -3 -111 -50 0 -30 32 -40 124 -40 l84 0 7 -30 c9 -40 51 -89 92 -106 21
-9 72 -14 143 -14 l110 0 0 -108 0 -108 -58 -57 c-32 -31 -65 -57 -74 -57 -30
0 -49 -12 -64 -41 -18 -36 -10 -73 23 -99 34 -27 66 -25 100 4 23 20 27 31 26
68 -2 41 1 48 52 98 l55 54 0 123 0 123 40 0 c36 0 46 -6 115 -77 l74 -78 1
-193 c0 -201 6 -237 46 -277 16 -15 20 -38 24 -133 4 -95 8 -117 23 -126 12
-8 22 -8 35 0 14 9 18 29 20 108 l3 96 44 0 45 0 0 -88 c0 -102 12 -129 52
-119 32 8 38 29 38 130 l0 77 45 0 44 0 3 -96 c2 -79 6 -99 20 -108 13 -8 23
-8 35 0 15 9 19 28 21 105 2 69 7 96 17 102 12 6 15 38 15 167 0 136 2 160 15
160 13 0 15 -25 15 -165 0 -138 2 -165 15 -165 11 0 15 -20 17 -96 2 -79 6
-99 21 -108 12 -8 22 -8 35 0 14 9 18 29 20 108 l3 96 44 0 45 0 0 -83 c0 -89
15 -127 50 -127 30 0 40 31 40 124 l0 86 45 0 44 0 3 -96 c2 -79 6 -99 21
-108 12 -8 22 -8 35 0 14 9 17 29 20 124 2 105 5 115 30 148 l27 35 3 209 3
208 70 72 c38 39 69 75 69 80 0 4 20 8 45 8 l45 0 0 -121 0 -121 59 -61 c52
-56 58 -65 54 -97 -6 -46 31 -90 77 -90 41 0 80 39 80 80 0 37 -39 80 -72 80
-15 0 -43 19 -76 53 l-52 53 0 112 0 112 111 0 c82 0 120 4 145 16 40 19 72
60 80 103 l7 31 86 0 c101 0 124 11 119 55 l-3 30 -97 3 c-63 2 -98 -1 -98 -8
0 -6 -32 -10 -83 -10 -76 0 -86 2 -107 25 -21 23 -31 25 -103 25 -58 0 -78 3
-75 13 3 8 32 13 84 15 74 3 81 1 104 -23 21 -22 31 -25 97 -25 l73 0 0 39 c0
46 8 49 119 48 82 0 107 15 92 56 -8 20 -16 22 -110 25 l-101 3 0 29 0 30
-165 0 c-140 0 -165 2 -165 15 0 13 35 15 253 15 279 0 291 2 285 55 l-3 30
-102 3 -103 3 0 49 0 49 101 3 c95 3 102 4 110 26 6 17 4 27 -11 42 -17 17
-34 20 -110 20 l-90 0 0 45 0 44 103 3 102 3 0 35 0 35 -110 5 c-103 5 -112 7
-149 35 l-39 30 -204 3 -203 3 -70 69 -70 69 0 184 c0 189 -7 234 -41 273 -16
17 -19 37 -19 131 0 121 -8 141 -55 129 -25 -6 -25 -8 -25 -106 l0 -100 -45 0
-45 0 0 86 c0 97 -10 124 -45 124 -35 0 -45 -27 -45 -124 l0 -86 -45 0 -44 0
-3 103 c-3 98 -4 102 -26 105 -43 6 -52 -13 -52 -114 0 -76 -3 -94 -15 -94
-12 0 -15 -27 -17 -162 -2 -118 -6 -162 -15 -166 -10 -3 -13 34 -13 162 0 141
-2 166 -15 166 -12 0 -15 17 -15 94 0 101 -9 120 -52 114 -22 -3 -23 -7 -26
-105 l-3 -103 -44 0 -45 0 0 86 c0 97 -10 124 -45 124 -35 0 -45 -27 -45 -124
l0 -86 -45 0 -45 0 0 89 c0 49 -3 96 -6 105 -7 19 -45 21 -62 4z m218 -276 c0
-71 2 -81 25 -102 22 -21 25 -32 25 -91 0 -47 -4 -70 -15 -79 -13 -11 -15 -3
-15 62 0 67 -3 77 -25 98 -23 21 -25 31 -25 107 0 67 3 83 15 83 12 0 15 -15
15 -78z m518 -3 c3 -69 1 -77 -23 -99 -23 -21 -25 -31 -25 -101 0 -66 -2 -77
-15 -73 -11 5 -15 23 -15 77 0 59 4 75 25 103 21 28 25 43 25 104 0 53 3 71
13 68 8 -3 13 -31 15 -79z m-350 -21 c17 -17 15 -53 -3 -68 -11 -9 -15 -33
-15 -86 0 -59 -3 -74 -15 -74 -12 0 -15 16 -15 80 0 46 -4 80 -10 80 -16 0
-23 49 -10 65 15 18 51 20 68 3z m210 0 c17 -17 15 -53 -3 -68 -11 -9 -15 -33
-15 -86 0 -59 -3 -74 -15 -74 -12 0 -15 15 -15 77 0 57 -4 81 -17 95 -35 39
27 94 65 56z m-537 -8 c12 -7 19 -21 19 -38 0 -19 12 -40 40 -67 39 -38 40
-41 40 -107 0 -54 -3 -68 -15 -68 -12 0 -15 14 -15 62 0 58 -2 65 -37 100 -25
25 -46 38 -64 38 -39 0 -53 45 -23 74 18 19 28 20 55 6z m848 0 c40 -21 31
-80 -12 -80 -14 0 -40 -18 -66 -44 -42 -43 -43 -45 -39 -100 2 -46 0 -56 -12
-53 -12 2 -15 17 -14 65 1 60 3 65 43 106 27 28 40 48 36 58 -4 10 2 25 14 37
24 24 26 24 50 11z m-249 -320 c382 -107 624 -487 556 -876 -30 -172 -107
-316 -236 -437 -84 -80 -167 -129 -285 -170 -83 -29 -100 -31 -225 -32 -112 0
-149 4 -215 23 -259 75 -462 282 -536 548 -31 112 -32 278 0 389 87 309 326
526 636 576 76 12 221 2 305 -21z m-1202 -302 c7 -7 12 -21 12 -32 0 -11 17
-37 37 -58 36 -37 39 -38 106 -38 50 0 68 -3 65 -12 -3 -9 -30 -14 -74 -16
l-69 -3 -44 45 c-24 24 -49 42 -57 39 -21 -8 -54 16 -54 40 0 29 18 47 45 47
12 0 26 -5 33 -12z m2082 -9 c16 -29 -11 -69 -46 -69 -17 0 -40 -14 -65 -40
-39 -39 -42 -40 -108 -40 -52 0 -70 4 -75 15 -4 12 7 15 66 15 68 0 72 1 104
36 19 19 34 42 34 50 0 52 67 76 90 33z m-2085 -199 c15 -17 31 -20 102 -20
67 0 83 -3 83 -15 0 -12 -16 -15 -82 -15 -71 0 -85 3 -114 25 -27 21 -44 25
-98 25 -37 0 -66 4 -66 10 0 6 33 10 78 10 66 0 82 -3 97 -20z m2190 10 c-3
-5 -37 -10 -74 -10 -59 0 -70 -3 -91 -25 -22 -23 -31 -25 -112 -25 -72 0 -88
3 -88 15 0 12 16 15 83 15 71 0 87 3 102 20 15 17 31 20 102 20 54 0 82 -4 78
-10z m-2201 -125 c10 -11 37 -15 95 -15 65 0 81 -3 81 -15 0 -12 -16 -15 -84
-15 -62 0 -87 -4 -96 -15 -18 -22 -46 -18 -64 7 -20 28 -20 33 0 52 20 20 48
20 68 1z m2109 -7 c17 -25 -7 -68 -37 -68 -13 0 -29 7 -36 15 -9 11 -34 15
-96 15 -68 0 -84 3 -84 15 0 12 16 15 84 15 63 0 87 4 96 16 16 19 59 15 73
-8z m-2109 -203 c10 -11 37 -15 95 -15 65 0 81 -3 81 -15 0 -12 -16 -15 -84
-15 -63 0 -87 -4 -96 -15 -17 -21 -49 -15 -66 10 -28 42 33 86 70 50z m2109
-7 c17 -25 -7 -68 -37 -68 -13 0 -29 7 -36 15 -9 11 -34 15 -96 15 -68 0 -84
3 -84 15 0 12 16 15 84 15 63 0 87 4 96 16 16 19 59 15 73 -8z m-1909 -123 c4
-13 -8 -15 -74 -15 -69 0 -82 -3 -108 -25 -26 -22 -39 -25 -107 -25 -57 0 -76
3 -72 13 2 8 27 12 70 13 56 1 71 6 97 28 28 23 40 26 110 26 60 0 79 -3 84
-15z m36 -110 c0 -12 -15 -15 -71 -15 -78 0 -139 -26 -139 -59 0 -23 -20 -41
-45 -41 -27 0 -45 18 -45 46 0 29 24 48 53 40 16 -4 35 3 58 19 29 20 46 24
112 25 62 0 77 -3 77 -15z m1749 -7 c20 -13 49 -23 65 -23 40 0 61 -33 40 -63
-8 -12 -22 -22 -31 -22 -20 0 -53 29 -53 46 0 7 -13 22 -29 33 -23 17 -44 21
-105 21 -70 0 -87 6 -69 23 3 4 38 7 76 7 55 0 77 -5 106 -22z m-1271 -524 c3
-69 3 -69 -38 -109 -26 -26 -40 -48 -40 -65 0 -31 -17 -50 -45 -50 -27 0 -45
18 -45 45 0 26 18 45 44 45 11 0 37 17 58 37 37 36 38 39 38 106 0 50 3 68 13
65 8 -3 13 -30 15 -74z m671 -98 c19 -20 44 -36 56 -36 29 0 45 -19 45 -51 0
-27 -15 -39 -50 -39 -21 0 -44 34 -37 53 2 7 -15 33 -39 59 -42 44 -44 50 -44
106 0 33 5 63 13 71 10 10 13 -2 17 -58 5 -63 8 -73 39 -105z m-561 52 c3 -69
0 -78 -23 -106 -22 -26 -25 -39 -25 -101 0 -56 -3 -71 -15 -71 -12 0 -15 15
-15 76 0 67 3 80 25 106 22 26 25 39 25 105 0 55 3 74 13 71 8 -3 13 -31 15
-80z m422 6 c0 -67 3 -80 25 -106 23 -27 26 -38 23 -101 -2 -45 -7 -72 -15
-75 -10 -3 -13 16 -13 70 0 67 -3 77 -25 98 -23 21 -25 31 -25 107 0 67 3 83
15 83 12 0 15 -15 15 -76z m-320 -28 c0 -62 4 -87 15 -96 19 -16 19 -54 1 -70
-42 -34 -99 28 -63 68 13 14 17 38 17 100 0 66 3 82 15 82 12 0 15 -16 15 -84z
m210 0 c0 -62 4 -87 15 -96 18 -15 20 -51 3 -68 -18 -18 -43 -15 -64 9 -18 20
-18 22 -1 51 12 20 17 52 17 102 0 40 3 76 7 79 18 18 23 0 23 -77z m-1050 29
c10 -12 10 -18 0 -30 -7 -8 -18 -15 -25 -15 -7 0 -18 7 -25 15 -10 12 -10 18
0 30 7 8 18 15 25 15 7 0 18 -7 25 -15z m1918 -12 c3 -22 -28 -40 -48 -28 -12
7 -13 38 -3 49 15 14 48 1 51 -21z"/>
<path d="M1383 2565 c-7 -20 2 -29 21 -22 9 4 13 13 10 22 -8 19 -23 19 -31 0z"/>
<path d="M1597 2574 c-14 -14 -7 -35 11 -32 9 2 17 10 17 17 0 16 -18 25 -28
15z"/>
<path d="M1060 2540 c0 -11 7 -20 15 -20 8 0 15 9 15 20 0 11 -7 20 -15 20 -8
0 -15 -9 -15 -20z"/>
<path d="M1914 2549 c-10 -17 13 -36 27 -22 12 12 4 33 -11 33 -5 0 -12 -5
-16 -11z"/>
<path d="M1389 2120 c-281 -118 -321 -136 -318 -145 1 -6 45 -28 98 -51 l96
-41 5 -131 5 -131 65 29 c36 16 77 30 93 30 20 0 27 5 27 20 0 11 7 23 15 26
11 4 15 21 15 55 0 27 5 49 10 49 6 0 10 -22 10 -49 0 -34 4 -51 15 -55 8 -3
15 -15 15 -26 0 -11 7 -20 15 -20 13 0 15 -43 15 -330 0 -323 0 -330 -20 -330
-20 0 -20 7 -20 305 l0 305 -35 0 -35 0 0 -305 c0 -298 0 -305 -20 -305 -20 0
-20 7 -20 301 0 165 -4 299 -8 297 -4 -1 -38 -16 -75 -32 l-67 -29 0 -149 0
-148 -30 0 -29 0 -3 88 -3 87 -33 3 c-20 2 -36 10 -39 20 -12 34 -36 52 -70
52 -31 0 -33 -2 -33 -34 0 -25 -5 -35 -20 -39 -18 -5 -20 -14 -20 -91 l0 -86
-55 0 -55 0 0 -66 c0 -56 4 -71 29 -108 47 -68 173 -180 248 -218 122 -64 200
-83 348 -83 146 0 200 12 322 73 145 71 293 225 293 303 0 39 0 39 -40 39
l-40 0 0 94 c0 85 -2 94 -20 99 -16 4 -20 14 -20 45 0 37 -3 41 -27 44 -25 3
-28 7 -31 46 -3 34 -7 43 -20 40 -12 -2 -18 -15 -20 -46 -3 -39 -5 -42 -33
-42 -28 0 -29 -2 -29 -45 0 -41 -2 -45 -25 -45 -22 0 -25 -4 -25 -40 0 -38 -2
-40 -30 -40 l-30 0 0 285 0 285 56 25 c31 14 58 25 60 25 9 0 3 -113 -7 -131
-8 -15 -7 -24 2 -35 7 -9 12 -35 10 -60 -2 -38 1 -44 19 -44 17 0 20 6 20 48
0 26 5 53 11 59 8 8 8 17 0 31 -6 11 -11 50 -11 85 0 59 2 65 26 75 14 7 23
16 20 21 -3 5 -57 30 -118 56 -62 26 -158 67 -214 90 l-101 43 -114 -48z m269
-175 c67 -20 82 -41 21 -30 -129 22 -243 22 -351 0 -58 -11 -46 10 15 28 28 9
66 18 82 21 50 7 179 -3 233 -19z m-578 -645 c0 -29 -4 -40 -15 -40 -11 0 -15
11 -15 40 0 29 4 40 15 40 11 0 15 -11 15 -40z m820 0 c0 -20 -5 -30 -15 -30
-10 0 -15 10 -15 30 0 20 5 30 15 30 10 0 15 -10 15 -30z m-230 -30 c0 -11 -7
-20 -15 -20 -8 0 -15 9 -15 20 0 11 7 20 15 20 8 0 15 -9 15 -20z m310 -75 c0
-24 -5 -35 -15 -35 -10 0 -15 11 -15 35 0 24 5 35 15 35 10 0 15 -11 15 -35z
m-900 -10 c0 -24 -5 -35 -15 -35 -10 0 -15 11 -15 35 0 24 5 35 15 35 10 0 15
-11 15 -35z m760 -15 c0 -20 -5 -30 -15 -30 -10 0 -15 10 -15 30 0 20 5 30 15
30 10 0 15 -10 15 -30z m-170 -45 c0 -16 -6 -25 -15 -25 -9 0 -15 9 -15 25 0
16 6 25 15 25 9 0 15 -9 15 -25z"/>
<path d="M450 1931 c0 -12 6 -21 16 -21 9 0 14 7 12 17 -5 25 -28 28 -28 4z"/>
<path d="M2527 1944 c-14 -14 -7 -35 11 -32 9 2 17 10 17 17 0 16 -18 25 -28
15z"/>
<path d="M437 1624 c-14 -15 -6 -34 14 -34 14 0 19 5 17 17 -3 18 -20 27 -31
17z"/>
<path d="M2541 1616 c-12 -14 -5 -26 16 -26 15 0 18 26 4 34 -5 3 -14 0 -20
-8z"/>
<path d="M443 1413 c-21 -7 -15 -33 7 -33 11 0 20 6 20 14 0 18 -11 25 -27 19z"/>
<path d="M2541 1406 c-12 -14 -5 -26 16 -26 15 0 18 26 4 34 -5 3 -14 0 -20
-8z"/>
<path d="M450 1115 c0 -8 7 -15 15 -15 8 0 15 7 15 15 0 8 -7 15 -15 15 -8 0
-15 -7 -15 -15z"/>
<path d="M2520 1115 c0 -8 9 -15 20 -15 11 0 20 7 20 15 0 8 -9 15 -20 15 -11
0 -20 -7 -20 -15z"/>
<path d="M1062 474 c4 -21 22 -23 26 -1 2 10 -3 17 -13 17 -10 0 -15 -6 -13
-16z"/>
<path d="M1912 473 c4 -21 33 -25 33 -3 0 8 -8 16 -18 18 -14 3 -18 -1 -15
-15z"/>
<path d="M1387 473 c-4 -3 -7 -12 -7 -20 0 -15 26 -18 34 -4 7 11 -18 33 -27
24z"/>
<path d="M1597 473 c-4 -3 -7 -12 -7 -20 0 -15 26 -18 34 -4 7 11 -18 33 -27
24z"/>
</g>
</svg>
