<?xml version="1.0" standalone="no"?>
<!DOCTYPE svg PUBLIC "-//W3C//DTD SVG 20010904//EN"
 "http://www.w3.org/TR/2001/REC-SVG-20010904/DTD/svg10.dtd">
<svg version="1.0" xmlns="http://www.w3.org/2000/svg"
 width="1024.000000pt" height="1024.000000pt" viewBox="0 0 1024.000000 1024.000000"
 preserveAspectRatio="xMidYMid meet">

<g transform="translate(0.000000,1024.000000) scale(0.100000,-0.100000)"
fill="#6366f1" stroke="none">
<path d="M4083 8305 c-36 -25 -43 -77 -43 -318 l0 -227 -40 -36 c-22 -20 -54
-66 -72 -102 l-33 -67 -3 -446 -3 -447 -155 -157 -156 -158 -397 6 c-271 5
-416 4 -456 -4 -72 -13 -144 -50 -194 -101 l-38 -37 -247 -3 -248 -3 -29 -33
c-41 -45 -41 -102 0 -143 l29 -29 211 0 211 0 0 -102 0 -103 -192 2 c-115 2
-206 -2 -225 -8 -44 -14 -63 -44 -63 -97 0 -35 6 -49 29 -73 l29 -29 211 0
211 0 0 -104 0 -105 -216 -3 -216 -3 -24 -28 c-46 -54 -26 -144 38 -166 18 -6
112 -11 224 -11 l194 0 0 -100 0 -100 -194 0 c-107 0 -206 -4 -219 -9 -72 -28
-92 -118 -38 -172 l29 -29 211 0 211 0 0 -105 0 -105 -211 0 -211 0 -29 -29
c-48 -49 -36 -130 24 -163 14 -8 92 -13 227 -15 l205 -3 7 -45 c16 -108 104
-222 211 -271 l62 -29 258 -3 257 -3 0 -247 0 -247 -123 -123 c-118 -118 -124
-122 -165 -122 -130 0 -218 -140 -164 -262 71 -161 314 -141 350 29 10 46 4
105 -13 133 -5 8 40 60 129 149 l137 137 -3 277 -3 277 97 0 96 0 43 -52 c24
-29 100 -111 169 -181 l125 -128 0 -447 c0 -443 0 -447 23 -504 13 -33 44 -79
72 -110 l50 -52 0 -243 0 -243 29 -32 c39 -44 98 -46 138 -5 l28 27 3 215 3
215 100 0 99 0 0 -210 0 -210 29 -32 c39 -44 98 -46 138 -5 l28 27 3 215 3
215 100 0 99 0 0 -204 c0 -113 4 -216 10 -230 22 -59 119 -71 160 -19 19 24
20 39 20 239 l0 214 105 0 105 0 0 -214 c0 -200 1 -215 20 -239 38 -48 110
-45 152 7 15 18 18 47 18 234 l0 212 103 0 104 0 0 -216 c1 -215 1 -216 25
-240 13 -14 40 -27 60 -30 30 -5 41 -1 69 24 l34 30 3 216 3 216 100 0 99 0 0
-206 c0 -230 6 -254 66 -274 41 -14 76 -5 106 27 23 24 23 28 26 275 l3 251
39 46 c21 25 49 69 62 96 23 50 23 53 26 508 l3 458 102 99 c56 54 132 135
167 179 l65 81 100 0 100 0 -3 -281 -3 -281 134 -137 c113 -114 133 -139 127
-156 -5 -11 -9 -44 -9 -73 -2 -109 73 -187 178 -186 67 0 110 20 148 71 25 33
28 45 28 113 0 69 -3 80 -29 114 -33 44 -95 75 -146 76 -32 0 -48 13 -158 123
l-122 122 0 247 0 247 258 3 257 3 60 28 c110 52 194 161 210 275 l6 47 203 0
c222 0 245 5 272 57 18 35 18 62 -2 99 -26 52 -60 59 -284 59 l-200 0 0 100 0
100 211 0 c179 0 215 3 239 17 57 33 66 104 21 155 l-29 33 -221 3 -221 3 0
100 0 99 211 0 211 0 34 34 c45 45 47 92 5 138 l-29 33 -217 3 -216 3 3 101 3
100 215 5 c159 3 220 8 236 18 51 33 55 127 7 165 -24 19 -39 20 -245 20
l-219 0 3 103 3 102 221 5 c163 4 225 8 237 18 27 23 40 77 27 116 -21 64 -32
66 -299 66 l-240 0 -53 53 c-37 37 -71 61 -111 75 -56 21 -72 22 -491 22
l-434 0 -161 161 -161 161 0 403 c0 228 -4 425 -10 455 -13 68 -47 142 -93
203 l-37 47 0 241 0 241 -29 29 c-41 40 -91 40 -132 0 l-29 -29 0 -216 0 -216
-100 0 -100 0 0 200 c0 255 -12 290 -100 290 -88 0 -100 -35 -100 -290 l0
-200 -99 0 -100 0 -3 221 -3 221 -28 24 c-38 33 -95 33 -131 -1 -30 -28 -29
-18 -27 -272 l2 -193 -105 0 -106 0 0 216 0 216 -29 29 c-22 21 -39 29 -66 29
-27 0 -44 -8 -66 -29 l-29 -29 0 -216 0 -216 -99 0 -100 0 -3 221 -3 221 -28
24 c-33 28 -91 32 -124 9 -35 -25 -43 -77 -43 -282 l0 -193 -100 0 -100 0 0
214 0 214 -26 31 c-21 26 -33 31 -68 31 -23 0 -51 -7 -63 -15z m1392 -1425
c358 -76 675 -253 926 -518 327 -344 495 -791 476 -1267 -10 -239 -48 -420
-132 -625 -261 -638 -854 -1058 -1535 -1086 -646 -28 -1241 289 -1580 841
-187 304 -281 699 -251 1054 38 456 219 837 543 1146 139 133 263 220 433 305
160 80 278 121 432 149 155 29 158 29 383 26 162 -3 226 -8 305 -25z m-2485
-3770 c11 -11 20 -32 20 -47 0 -63 -80 -87 -119 -37 -27 34 -26 50 4 79 29 30
68 32 95 5z m4375 -5 c14 -13 25 -33 25 -45 0 -54 -93 -83 -124 -38 -23 33
-19 64 10 87 35 27 59 26 89 -4z"/>
<path d="M5035 6608 c-38 -17 -259 -111 -490 -209 -316 -134 -421 -182 -423
-196 -2 -15 42 -36 240 -118 l242 -100 -1 -298 c-1 -222 2 -297 10 -294 7 3
74 33 150 67 132 59 140 61 207 58 l70 -3 0 58 c0 57 0 57 30 57 l30 0 0 120
0 120 25 0 25 0 0 -120 0 -120 30 0 c30 0 30 -1 30 -54 l0 -55 38 -3 37 -3 0
-750 0 -750 -41 -3 -42 -3 -6 393 c-4 216 -6 497 -5 623 1 127 1 265 0 308
l-1 77 -80 0 -80 0 0 -700 0 -700 -45 0 -45 0 0 690 c0 380 -2 690 -5 690 -3
0 -79 -32 -168 -70 l-163 -71 1 -342 0 -342 -65 0 -65 0 -3 180 c-2 168 -4
181 -24 202 -18 20 -32 23 -90 23 l-68 0 0 39 c0 31 -8 47 -41 85 l-41 46 -74
0 -74 0 0 -85 0 -85 -55 0 -55 0 0 -205 0 -205 -125 0 -125 0 0 -141 0 -140
43 -67 c190 -294 504 -535 855 -656 171 -59 273 -77 487 -83 167 -5 206 -3
320 17 334 57 635 210 873 443 85 84 187 206 238 287 27 43 29 52 26 128 l-4
82 -84 0 -84 0 -2 222 -3 223 -42 -3 -43 -4 0 106 0 106 -70 0 -70 0 0 95 0
95 -45 0 -45 0 0 -95 0 -95 -70 0 -70 0 0 -100 0 -99 -57 -3 -58 -3 -3 -102
-3 -103 -64 0 -65 0 0 368 c-1 202 -1 496 -2 654 -1 172 2 291 7 296 10 9 249
112 259 112 3 0 6 -61 6 -135 0 -107 -3 -137 -14 -141 -8 -3 -20 -19 -26 -35
-14 -33 0 -83 26 -93 11 -4 14 -30 14 -116 l0 -110 40 0 40 0 0 108 c0 96 2
111 20 127 13 12 20 31 20 55 0 24 -7 43 -20 55 -18 17 -20 31 -20 170 l0 152
65 28 c36 15 65 33 65 40 0 7 -53 35 -117 63 -663 280 -884 372 -900 371 -10
0 -49 -14 -88 -31z m270 -438 c108 -16 194 -39 264 -72 55 -26 62 -32 48 -43
-12 -9 -35 -6 -109 12 -237 60 -621 54 -810 -13 -37 -13 -44 -13 -57 0 -13 14
-7 19 50 45 72 34 159 58 252 70 90 12 281 12 362 1z m-1135 -1505 l0 -85 -35
0 -35 0 0 85 0 85 35 0 35 0 0 -85z m1880 -10 l0 -75 -40 0 -40 0 0 75 0 75
40 0 40 0 0 -75z m-542 -67 c-3 -49 -5 -53 -30 -56 -28 -3 -28 -2 -28 52 0 56
0 56 31 56 l30 0 -3 -52z m712 -165 l0 -73 -40 0 -40 0 0 68 c0 38 2 71 5 74
3 2 21 4 40 4 l35 -1 0 -72z m-2050 -28 l0 -85 -35 0 -35 0 0 85 0 85 35 0 35
0 0 -85z m1740 -30 l0 -75 -40 0 -40 0 0 75 0 75 40 0 40 0 0 -75z m-400 -100
c0 -54 0 -55 -30 -55 -30 0 -30 1 -30 55 0 54 0 55 30 55 30 0 30 -1 30 -55z"/>
</g>
</svg>
